<svg width="407" height="357" viewBox="0 0 407 357" fill="none" xmlns="http://www.w3.org/2000/svg">
<g id="illustration-grow-together 1" clip-path="url(#clip0_0_3)">
<path id="Vector" opacity="0.1" d="M69.99 357C108.644 357 139.98 351.279 139.98 344.221C139.98 337.164 108.644 331.443 69.99 331.443C31.3356 331.443 0 337.164 0 344.221C0 351.279 31.3356 357 69.99 357Z" fill="#00C7FA"/>
<path id="Vector_2" opacity="0.1" d="M337.014 353.975C375.668 353.975 407.004 348.253 407.004 341.196C407.004 334.139 375.668 328.417 337.014 328.417C298.359 328.417 267.024 334.139 267.024 341.196C267.024 348.253 298.359 353.975 337.014 353.975Z" fill="#00C7FA"/>
<path id="Vector_3" opacity="0.1" d="M109.125 0.196022C90.832 1.24422 72.3482 6.97094 58.0758 19.2808C45.5532 30.0866 36.5221 47.0751 38.7252 64.1445C41.3259 84.2945 58.1037 98.9522 64.3272 118.173C68.3317 130.53 67.7074 144.165 65.0868 156.948C63.4006 165.185 60.8078 173.429 55.825 179.957C46.8496 191.7 30.6525 197.368 26.2423 211.791C21.4464 227.475 33.5316 242.858 44.8851 254.013C53.948 262.914 63.4404 271.772 74.8615 276.651C83.2126 280.222 92.2755 281.504 101.259 282.016C126.065 283.41 150.867 279.164 174.033 269.557C185.132 264.942 195.869 259.092 207.485 256.309C232.24 250.378 257.71 258.93 282.799 262.935C304.306 266.358 326.162 266.427 347.687 263.14C361.232 261.069 375.226 257.332 385.426 247.566C395.766 237.651 400.936 222.303 400.363 207.432C399.79 192.561 393.936 178.244 385.315 166.569C374.18 151.49 358.822 140.761 345.46 127.91C331.855 114.817 320.281 99.4876 311.173 82.4964C305.924 72.6962 301.458 62.2952 294.658 53.6668C284.052 40.2192 268.67 32.2214 253.3 26.043C217.844 11.8114 181.067 8.91394 144.1 2.62477C132.548 0.651945 120.828 -0.460165 109.125 0.196022V0.196022Z" fill="#00C7FA"/>
<g id="Group" opacity="0.7">
<path id="Vector_4" opacity="0.7" d="M102.814 156.424H178.753V201.893H102.814V156.424Z" fill="#F6F7F9"/>
<path id="Vector_5" opacity="0.2" d="M117.11 185.079C121.476 185.079 125.016 181.286 125.016 176.608C125.016 171.93 121.476 168.137 117.11 168.137C112.744 168.137 109.204 171.93 109.204 176.608C109.204 181.286 112.744 185.079 117.11 185.079Z" fill="#00C7FA"/>
<path id="Vector_6" opacity="0.2" d="M134.655 166.569H169.101V168.892H134.655V166.569ZM134.655 172.488H152.204V174.81H134.655V172.488ZM134.655 178.406H163.037V180.728H134.655V178.406ZM134.655 184.325H169.101V186.647H134.655V184.325ZM159.573 192.868H169.105V197.355H159.573V192.868Z" fill="#00C7FA"/>
<path id="Vector_7" opacity="0.7" d="M166.747 30.7641H242.686V76.2328H166.747V30.7641Z" fill="#F6F7F9"/>
<path id="Vector_8" opacity="0.2" d="M181.048 59.419C185.414 59.419 188.953 55.6265 188.953 50.9483C188.953 46.27 185.414 42.4775 181.048 42.4775C176.681 42.4775 173.142 46.27 173.142 50.9483C173.142 55.6265 176.681 59.419 181.048 59.419Z" fill="#00C7FA"/>
<path id="Vector_9" opacity="0.2" d="M198.593 40.9094H233.039V43.2316H198.593V40.9094ZM198.593 46.8279H216.142V49.1501H198.593V46.8279ZM198.593 52.7464H226.975V55.0686H198.593V52.7464ZM198.593 58.6691H233.039V60.9913H198.593V58.6691ZM223.507 67.2081H233.039V71.6948H223.507V67.2081Z" fill="#00C7FA"/>
<path id="Vector_10" opacity="0.7" d="M192.023 107.103H267.962V152.572H192.023V107.103Z" fill="#F6F7F9"/>
<path id="Vector_11" opacity="0.2" d="M206.319 135.763C210.686 135.763 214.225 131.97 214.225 127.292C214.225 122.614 210.686 118.821 206.319 118.821C201.953 118.821 198.414 122.614 198.414 127.292C198.414 131.97 201.953 135.763 206.319 135.763Z" fill="#00C7FA"/>
<path id="Vector_12" opacity="0.2" d="M223.869 117.253H258.315V119.575H223.869V117.253ZM223.869 123.171H241.418V125.494H223.869V123.171ZM223.869 129.09H252.25V131.412H223.869V129.09ZM223.869 135.008H258.315V137.331H223.869V135.008ZM248.783 143.552H258.315V148.038H248.783V143.552Z" fill="#00C7FA"/>
</g>
<path id="Vector_13" d="M76.305 57.8254H204.001V135.136H76.305V57.8254Z" fill="url(#paint0_linear_0_3)"/>
<path id="Vector_14" d="M77.2077 58.7842H203.11V134.173H77.2077V58.7842Z" fill="#F6F7F9"/>
<path id="Vector_15" opacity="0.2" d="M100.909 106.298C108.148 106.298 114.016 100.01 114.016 92.2539C114.016 84.4976 108.148 78.2098 100.909 78.2098C93.67 78.2098 87.8017 84.4976 87.8017 92.2539C87.8017 100.01 93.67 106.298 100.909 106.298Z" fill="#00C7FA"/>
<path id="Vector_16" opacity="0.2" d="M130.006 75.6064H187.12V79.4541H130.006V75.6064ZM130.006 85.4237H159.1V89.2713H130.006V85.4237ZM130.006 95.2367H177.063V99.0843H130.006V95.2367ZM130.006 105.05H187.12V108.897H130.006V105.05Z" fill="#00C7FA"/>
<path id="Vector_17" d="M171.313 119.213H187.116V126.653H171.313V119.213Z" fill="#00C7FA"/>
<path id="Vector_18" d="M165.876 162.266H287.333V234.987H165.876V162.266Z" fill="url(#paint1_linear_0_3)"/>
<path id="Vector_19" d="M166.715 162.764H286.494V234.485H166.715V162.764Z" fill="#F6F7F9"/>
<path id="Vector_20" opacity="0.2" d="M189.267 207.969C196.155 207.969 201.738 201.986 201.738 194.606C201.738 187.227 196.155 181.244 189.267 181.244C182.38 181.244 176.796 187.227 176.796 194.606C176.796 201.986 182.38 207.969 189.267 207.969Z" fill="#00C7FA"/>
<path id="Vector_21" opacity="0.2" d="M216.945 178.768H271.279V182.429H216.945V178.768ZM216.945 188.108H244.623V191.769H216.945V188.108ZM216.945 197.444H261.711V201.104H216.945V197.444ZM216.945 206.78H271.279V210.44H216.945V206.78Z" fill="#00C7FA"/>
<path id="Vector_22" opacity="0.5" d="M256.243 220.253H271.279V227.331H256.243V220.253Z" fill="#00C7FA"/>
<path id="Vector_23" opacity="0.1" d="M32.951 122.681L33.2453 122.75C33.1593 122.687 33.0536 122.662 32.951 122.681V122.681Z" fill="url(#paint2_linear_0_3)"/>
<path id="Vector_24" d="M94.4786 172.181C93.5997 165.858 88.2391 151.106 88.2391 151.106C88.1437 150.68 88.0403 150.229 87.921 149.794C84.1153 135.78 78.8501 134.54 78.8501 134.54L59.9886 130.232C60.1443 130.336 60.2794 130.472 60.3863 130.632L60.088 130.684C59.2224 129.59 58.6506 128.264 58.4337 126.849C58.3979 126.64 58.3661 126.423 58.3423 126.201C59.6978 124.786 60.7552 123.077 61.4434 121.189C62.1316 119.3 62.4346 117.276 62.3322 115.251C62.2297 113.227 61.7241 111.249 60.8494 109.451C59.9746 107.654 58.751 106.077 57.2606 104.828C57.0657 104.662 56.8629 104.504 56.6561 104.347C57.5469 103.337 57.5748 101.926 56.9107 100.512C55.4234 97.2009 52.1943 95.1088 48.8697 94.0904C46.3326 93.3107 43.5807 93.0593 41.0674 93.9115C39.6319 94.3972 38.3275 95.2196 36.9834 95.9397C34.478 97.2819 31.7182 98.3429 29.8253 100.546C29.3839 101.061 28.9822 101.718 29.1095 102.395C29.2089 102.902 29.5787 103.29 29.8213 103.741C30.3582 104.747 30.219 106.013 29.8571 107.108C29.4952 108.203 28.9464 109.238 28.688 110.346C28.4295 111.454 28.5329 112.792 29.3203 113.593C29.7028 113.914 30.101 114.212 30.5133 114.488C30.9453 114.879 31.3241 115.334 31.6387 115.838L33.8736 119.072C34.9168 120.506 35.8479 122.03 36.6573 123.627C37.21 124.799 37.6435 126.056 38.3871 127.104C38.6059 127.416 38.8552 127.702 39.1308 127.957C39.0592 127.927 38.9837 127.901 38.9121 127.867C39.2414 128.211 39.6327 128.48 40.0621 128.656C40.4914 128.833 40.9499 128.914 41.4094 128.894H41.5208C41.6913 128.891 41.8545 128.819 41.9781 128.694V129.12C42.0179 130.675 42.0139 132.328 41.9105 133.879L41.7355 133.785C41.4765 133.646 41.1855 133.589 40.8972 133.622C40.609 133.654 40.3354 133.775 40.1091 133.969L22.7348 148.882C22.7348 148.882 18.9609 154.421 19.4859 163.966L16.4437 178.291C16.4437 178.291 12.638 190.448 15.5648 199.127C18.4917 207.807 20.1897 212.762 20.1897 212.762C20.1897 212.762 21.3589 222.622 23.1166 223.415C24.8743 224.207 25.6338 224.659 25.6338 224.659L25.9838 227.015C25.9838 227.015 26.0991 227.241 26.3059 227.633C27.5864 230.015 32.3227 238.426 35.0785 237.531C35.4228 239.814 35.5732 242.126 35.5279 244.438L38.248 264.039C38.248 264.039 40.1488 269.369 40.0335 272.16C39.9182 274.951 42.2565 278.922 42.2565 278.922C40.8369 281.704 40.4208 284.947 41.0873 288.036C42.2008 293.248 43.6046 317.305 43.6046 317.305L45.6526 323.134L45.5929 329.951C45.4234 331.059 44.9906 332.101 44.3363 332.977C43.016 334.511 43.1035 336.283 39.9619 338.375C36.8203 340.467 34.7922 341.256 34.7922 344.047C34.7886 344.432 34.7567 344.817 34.6968 345.197C34.4025 347.238 33.8338 348.337 39.6677 348.934C46.5155 349.629 51.0808 344.839 51.0808 344.839C51.0808 344.839 52.0869 342.883 56.8311 342.095C56.8311 342.095 58.4496 342.001 58.5411 340.463C58.5729 339.935 58.565 338.921 58.5212 337.804C58.4457 335.674 58.2548 333.194 58.0042 333.07C57.6901 332.921 57.1333 330.778 56.9425 330.003H58.2627C58.2627 330.003 59.4915 320.143 58.2627 313.751C57.0339 307.36 58.1474 302.839 58.1474 302.839L57.9128 285.974C57.9128 285.974 56.2545 284.172 57.5549 280.891C58.8553 277.61 57.5549 261.359 57.5549 261.359C57.5549 261.359 58.0281 255.53 59.3722 254.166C60.7164 252.803 59.4398 245.623 59.3722 245.248L61.7583 253.855C61.7583 253.855 62.8121 270.971 65.039 274.073L65.6833 281.82C65.6833 281.82 70.2485 288.952 69.3697 292.8C68.4908 296.648 70.3082 310.534 70.3082 310.534V324.736C70.3082 324.736 68.2562 330.441 71.1274 332.487L72.3641 332.436C71.9426 332.862 71.6404 333.454 71.1711 333.978C70.6223 334.583 70.3122 336.884 70.1372 338.861C69.99 340.536 69.9423 341.976 69.9423 341.976C69.9423 341.976 71.1711 344.068 73.4538 344.209C75.7364 344.349 83.2881 350.536 83.2881 350.536C83.2881 350.536 90.7564 350.536 92.6851 350.11L92.8004 350.08C93.42 349.869 93.9407 349.411 94.2559 348.802C94.645 348.096 94.7714 347.259 94.6098 346.458C94.3672 345.235 93.4645 343.902 91.4563 342.756C86.4496 339.922 85.706 337.272 85.706 337.272L82.4252 332.005H82.8944C82.8944 332.005 82.6041 326.423 86.1713 320.16L85.9406 292.566C85.9406 292.566 87.4001 283.077 84.8868 277.929C84.8868 277.929 84.68 272.471 86.3621 270.797C88.0443 269.122 84.1233 252.193 84.1233 252.193C84.1233 252.193 83.3279 243.109 82.3576 234.817C86.3065 238.831 90.4064 224.373 91.1063 221.804H91.2097C91.2097 221.804 91.1899 221.736 91.162 221.617C91.1342 221.497 91.2097 221.433 91.2097 221.433C91.2097 221.412 90.3349 218.089 90.9751 218.766C91.6154 219.444 93.2021 216.908 93.2021 216.908C93.2021 216.908 92.9674 203.077 95.7193 196.106C98.4712 189.135 94.4786 172.181 94.4786 172.181V172.181ZM82.7115 180.98L82.7314 180.942C83.1291 189.387 82.6519 207.406 82.6519 207.406C82.6519 207.406 82.111 209.716 81.5304 212.434L81.1129 195.314L80.7152 179.19L82.7115 180.98ZM32.3147 175.159C32.3147 175.159 34.3031 201.824 32.3147 205.668C31.746 206.763 31.2728 208.71 30.8791 210.939C30.223 209.089 28.8311 204.747 29.3282 202.447C29.9724 199.464 28.0398 191.654 28.0398 191.47C28.0398 191.287 27.8648 187.128 29.2686 183.933C30.6723 180.737 29.7378 179.373 29.7378 179.373C29.7378 179.373 30.9109 174.167 32.3147 175.159V175.159Z" fill="url(#paint3_linear_0_3)"/>
<path id="Vector_25" d="M37.1583 235.213C35.4285 243.377 28.5329 231.029 26.9621 228.068L26.6439 227.454L27.3916 223.7L31.3444 221.974C31.9688 222.324 32.5601 222.738 33.1101 223.21C35.2853 225.017 38.4945 228.89 37.1583 235.213ZM90.645 221.851L90.6013 222.034C90.6013 222.09 90.5655 222.153 90.5456 222.234C89.8696 224.791 85.8491 239.133 81.9679 235.149C77.7207 230.778 79.7847 220.739 79.7847 220.739H79.8244L88.7601 219.759L90.5297 221.71L90.645 221.851Z" fill="#EFB7B9"/>
<path id="Vector_26" d="M85.4753 292.459L85.702 319.849C82.2025 326.07 82.4848 331.609 82.4848 331.609L70.9524 332.099C68.1369 330.071 70.157 324.408 70.157 324.408V310.308C70.157 310.308 68.3556 296.528 69.2146 292.694C70.0735 288.859 65.5958 281.798 65.5958 281.798L64.9674 274.107C62.7803 271.031 61.7463 254.038 61.7463 254.038L59.3961 245.516C59.4557 245.887 60.6766 253.05 59.3961 254.366C58.1156 255.683 57.6145 261.508 57.6145 261.508C57.6145 261.508 58.8791 277.635 57.6145 280.895C56.3499 284.155 57.9565 286.008 57.9565 286.008L58.1911 302.75C58.1911 302.75 57.0975 307.245 58.3025 313.585C59.5074 319.925 58.3025 329.713 58.3025 329.713H45.8952L45.9508 322.895L43.9426 317.109C43.9426 317.109 42.5627 293.226 41.4731 288.058C40.8182 284.992 41.2252 281.776 42.6184 279.007C42.6184 279.007 40.3238 275.066 40.4391 272.296C40.5545 269.527 38.6854 264.235 38.6854 264.235L36.0131 244.783C36.0883 241.041 35.6433 237.307 34.6928 233.705C33.1379 228.166 30.8433 220.901 30.8433 220.901L33.4361 221.148L46.5275 222.396C46.5275 222.396 78.3411 220.104 79.7767 222.009C80.0789 222.63 80.2831 223.301 80.3812 223.994C81.8088 230.876 83.6977 252.419 83.6977 252.419C83.6977 252.419 87.5472 269.224 85.8929 270.886C84.2386 272.548 84.4454 277.963 84.4454 277.963C86.9109 283.043 85.4753 292.459 85.4753 292.459V292.459Z" fill="#444053"/>
<path id="Vector_27" d="M58.5729 340.084C58.4814 341.609 56.8908 341.703 56.8908 341.703C52.238 342.487 51.2518 344.43 51.2518 344.43C51.2518 344.43 46.77 349.181 40.0574 348.512C34.3349 347.924 34.8876 346.808 35.1819 344.805C35.2405 344.428 35.2711 344.046 35.2734 343.663C35.2734 340.894 37.2617 340.105 40.3596 338.03C43.4574 335.955 43.3739 334.195 44.6664 332.674C45.9588 331.153 46.09 328.2 46.09 328.2C47.5535 325.473 51.2597 328.626 51.2597 328.626C51.4307 329.594 56.9464 329.478 56.9464 329.478C56.9464 329.478 57.6781 332.619 58.052 332.802C58.2985 332.926 58.4854 335.388 58.561 337.489C58.5968 338.554 58.6007 339.564 58.5729 340.084V340.084Z" fill="#B07473"/>
<path id="Vector_28" opacity="0.1" d="M58.5729 340.084C58.4814 341.609 56.8908 341.703 56.8908 341.703C52.238 342.487 51.2518 344.43 51.2518 344.43C51.2518 344.43 46.77 349.181 40.0574 348.512C34.3349 347.924 34.8876 346.808 35.1819 344.805C37.7389 345.487 42.6303 346.433 45.4856 344.771C49.4623 342.462 52.2977 340.847 52.2977 340.847L58.553 337.434C58.5968 338.554 58.6007 339.564 58.5729 340.084V340.084Z" fill="black"/>
<path id="Vector_29" d="M93.6395 348.303C93.3341 348.911 92.8211 349.369 92.2079 349.582C92.1718 349.596 92.1345 349.606 92.0965 349.611C90.1997 350.038 82.8746 350.038 82.8746 350.038C82.8746 350.038 75.4501 343.876 73.2231 343.736C70.9961 343.595 69.7753 341.52 69.7753 341.52C69.7753 341.52 69.819 340.088 69.9622 338.426C70.1372 336.462 70.4434 334.165 70.9802 333.577C71.9744 332.47 72.1732 330.948 74.428 331.916C74.428 331.916 77.6094 325.904 81.3634 330.548L85.2447 336.858C85.2447 336.858 85.9764 339.487 90.8916 342.304C92.8601 343.433 93.7469 344.762 93.9815 345.977C94.1429 346.771 94.0209 347.601 93.6395 348.303V348.303Z" fill="#B07473"/>
<path id="Vector_30" opacity="0.1" d="M93.6395 348.303C93.2021 348.7 92.7129 349.126 92.2079 349.582C92.1718 349.596 92.1345 349.606 92.0965 349.612C90.1997 350.038 82.8746 350.038 82.8746 350.038C82.8746 350.038 75.4501 343.876 73.2231 343.736C70.9961 343.595 69.7753 341.52 69.7753 341.52C69.7753 341.52 69.819 340.088 69.9622 338.427C72.2408 339.159 75.7006 340.45 76.6272 341.835C78.0468 343.966 82.3616 346.91 82.3616 346.91C82.3616 346.91 90.4064 346.083 93.9815 345.968C94.145 346.765 94.0229 347.599 93.6395 348.303V348.303Z" fill="black"/>
<path id="Vector_31" d="M62.3269 133.487L51.725 145.49C51.725 145.49 38.8842 144.476 41.1271 140.411C42.2684 138.345 42.4474 134.02 42.3479 130.245C42.2525 126.61 41.9026 123.517 41.9026 123.517C41.9026 123.517 59.9131 113.912 58.5331 122.869C58.2403 124.557 58.2228 126.287 58.4814 127.982C59.2648 132.507 62.3269 133.487 62.3269 133.487V133.487Z" fill="#EFB7B9"/>
<path id="Vector_32" opacity="0.1" d="M58.5292 122.869C58.2363 124.557 58.2188 126.287 58.4775 127.982C57.2458 129.319 55.7783 130.38 54.1602 131.104C52.5422 131.827 50.806 132.199 49.0527 132.196C46.603 132.196 43.9824 130.066 42.0139 128.809C41.9185 125.174 41.8986 123.517 41.8986 123.517C41.8986 123.517 59.9091 113.912 58.5292 122.869Z" fill="black"/>
<path id="Vector_33" d="M62.3269 117.236C62.3279 120.459 61.3076 123.586 59.433 126.106C57.5584 128.626 54.9408 130.389 52.0088 131.107C49.0767 131.824 46.0042 131.454 43.2943 130.056C40.5845 128.658 38.3981 126.315 37.0931 123.412C35.7881 120.509 35.442 117.217 36.1114 114.075C36.7809 110.933 38.4261 108.128 40.7778 106.119C43.1295 104.111 46.0481 103.017 49.0556 103.018C52.0632 103.018 54.9814 104.113 57.3322 106.123C58.8898 107.455 60.1476 109.146 61.0123 111.069C61.8769 112.993 62.3262 115.101 62.3269 117.236V117.236Z" fill="#EFB7B9"/>
<path id="Vector_34" opacity="0.1" d="M80.3772 223.96C77.0725 232.388 55.8131 232.563 55.8131 232.563V223.376L54.5246 223.287C55.0814 225.916 53.7293 232.333 53.7293 232.333C36.9277 234.889 32.8357 224.625 32.8357 224.625L33.4163 221.114L46.5076 222.362C46.5076 222.362 78.3212 220.07 79.7568 221.975C80.0645 222.595 80.2742 223.266 80.3772 223.96V223.96Z" fill="black"/>
<path id="Vector_35" d="M55.8131 231.455V222.264L54.5246 222.179C55.0814 224.808 53.7293 231.225 53.7293 231.225C41.0873 233.134 35.6353 227.816 33.7145 225.047C33.371 224.571 33.0763 224.056 32.8357 223.513L37.9616 192.582L39.1546 147.063L41.0038 139.078L41.4333 135.243V135.2L41.477 135.221L42.7814 135.822L50.6076 139.444L59.5432 132.256L59.6745 132.149L60.1159 131.791L60.8516 132.426L62.6769 133.994L68.5385 174.533C68.5385 174.533 78.703 205.749 80.588 218.348C80.6635 218.851 80.7271 219.32 80.7749 219.759C82.0116 231.242 55.8131 231.455 55.8131 231.455V231.455Z" fill="#E1E7EF"/>
<path id="Vector_36" d="M51.5898 141.131C52.0071 141.131 52.3454 140.769 52.3454 140.322C52.3454 139.875 52.0071 139.512 51.5898 139.512C51.1725 139.512 50.8342 139.875 50.8342 140.322C50.8342 140.769 51.1725 141.131 51.5898 141.131Z" fill="#67647E"/>
<path id="Vector_37" d="M51.9398 148.516C52.3571 148.516 52.6953 148.153 52.6953 147.706C52.6953 147.259 52.3571 146.896 51.9398 146.896C51.5225 146.896 51.1842 147.259 51.1842 147.706C51.1842 148.153 51.5225 148.516 51.9398 148.516Z" fill="#67647E"/>
<path id="Vector_38" d="M52.6914 160.476C53.1087 160.476 53.4469 160.114 53.4469 159.667C53.4469 159.219 53.1087 158.857 52.6914 158.857C52.2741 158.857 51.9358 159.219 51.9358 159.667C51.9358 160.114 52.2741 160.476 52.6914 160.476Z" fill="#67647E"/>
<path id="Vector_39" d="M53.944 173.353C54.3613 173.353 54.6996 172.99 54.6996 172.543C54.6996 172.096 54.3613 171.734 53.944 171.734C53.5267 171.734 53.1884 172.096 53.1884 172.543C53.1884 172.99 53.5267 173.353 53.944 173.353Z" fill="#67647E"/>
<path id="Vector_40" d="M54.6956 185.45C55.1129 185.45 55.4512 185.087 55.4512 184.64C55.4512 184.193 55.1129 183.83 54.6956 183.83C54.2783 183.83 53.94 184.193 53.94 184.64C53.94 185.087 54.2783 185.45 54.6956 185.45Z" fill="#67647E"/>
<path id="Vector_41" d="M55.4512 198.33C55.8685 198.33 56.2068 197.968 56.2068 197.521C56.2068 197.074 55.8685 196.711 55.4512 196.711C55.0339 196.711 54.6956 197.074 54.6956 197.521C54.6956 197.968 55.0339 198.33 55.4512 198.33Z" fill="#67647E"/>
<path id="Vector_42" d="M55.149 211.075C55.5663 211.075 55.9045 210.713 55.9045 210.265C55.9045 209.818 55.5663 209.456 55.149 209.456C54.7317 209.456 54.3934 209.818 54.3934 210.265C54.3934 210.713 54.7317 211.075 55.149 211.075Z" fill="#67647E"/>
<path id="Vector_43" opacity="0.1" d="M41.9662 197.082C41.9662 197.082 41.1231 208.927 39.5802 212.37C38.0372 215.813 37.3373 225.481 37.3373 225.481L33.7583 225.055C33.4147 224.579 33.1201 224.065 32.8794 223.521L38.0054 192.591L39.1984 147.071L41.0476 139.086L41.4771 135.251C41.491 135.24 41.5074 135.233 41.5248 135.23C41.7255 135.128 41.9453 135.077 42.1673 135.081C42.3893 135.085 42.6076 135.143 42.8053 135.251L42.9802 135.345C42.9285 135.503 42.8768 135.665 42.8291 135.831C41.4293 140.539 40.9044 149.223 40.9044 149.223C40.9044 149.223 42.9166 165.104 43.1433 172.492C43.37 179.881 41.9662 197.082 41.9662 197.082V197.082Z" fill="black"/>
<path id="Vector_44" opacity="0.1" d="M33.1101 223.21C33.0706 223.308 33.0254 223.404 32.9748 223.496C31.579 226.022 28.0398 227.629 26.9621 228.068L26.6439 227.454L27.3916 223.7L31.3444 221.975C31.9688 222.324 32.5601 222.738 33.1101 223.21V223.21Z" fill="black"/>
<path id="Vector_45" d="M23.5421 162.76L20.2693 164.865L17.2788 179.084C17.2788 179.084 13.5447 191.151 16.4198 199.766C19.295 208.382 20.9692 213.295 20.9692 213.295C20.9692 213.295 22.1184 223.095 23.8404 223.883C25.5623 224.672 26.3139 225.115 26.3139 225.115L26.6559 227.454C26.6559 227.454 31.3325 225.75 32.9868 222.767C34.6411 219.784 31.7699 212.323 31.7699 212.323C31.7699 212.323 29.3004 205.983 29.9327 203.03C30.565 200.077 28.6681 192.318 28.6681 192.135C28.6681 191.952 28.4971 187.823 29.8611 184.653C31.2251 181.483 30.3224 180.132 30.3224 180.132L29.4594 171.082L23.5421 162.76Z" fill="#67647E"/>
<path id="Vector_46" opacity="0.1" d="M80.6476 221.297C80.6476 221.297 71.9744 224.808 69.2146 221.723C66.4547 218.638 66.745 204.253 66.745 204.253C66.745 204.253 64.1045 177.661 62.4343 173.293C60.7641 168.926 61.6389 137.403 61.6389 137.403C61.6389 137.403 60.5096 133.334 59.5432 132.256C59.4824 132.185 59.4129 132.123 59.3364 132.073L59.6745 132.149L60.8675 132.426L62.6928 133.994L68.5544 174.533C68.5544 174.533 78.7189 205.749 80.6039 218.348L80.6476 221.297Z" fill="black"/>
<path id="Vector_47" opacity="0.1" d="M90.645 222.222H90.5456C89.456 222.371 79.8085 223.619 79.7727 221.472C79.7729 221.223 79.7862 220.974 79.8125 220.726L88.7482 219.746L90.5178 221.698C90.5496 221.825 90.5774 221.936 90.6013 222.021L90.645 222.222Z" fill="black"/>
<path id="Vector_48" d="M81.4151 148.516L87.758 152.056C87.758 152.056 93.0191 166.697 93.8821 172.978C93.8821 172.978 97.7872 189.796 95.0751 196.711C92.363 203.627 92.6056 217.36 92.6056 217.36C92.6056 217.36 91.0546 219.882 90.4223 219.205C89.7901 218.527 90.653 221.851 90.653 221.851C90.653 221.851 79.8244 223.393 79.7727 221.11C79.721 218.826 82.2582 207.935 82.2582 207.935C82.2582 207.935 82.9461 182.02 81.9679 177.959C80.9896 173.898 81.4151 148.516 81.4151 148.516V148.516Z" fill="#67647E"/>
<path id="Vector_49" opacity="0.1" d="M62.4939 176.118C62.4939 176.118 58.9149 185.471 57.7815 186.089C56.6482 186.707 58.0122 189.165 58.0122 189.165C58.0122 189.165 64.5062 179.442 62.4939 176.118V176.118ZM60.3704 143.304C60.4101 143.126 56.1153 147.817 54.97 148.516C53.8247 149.214 59.1456 148.477 60.3704 143.304ZM48.4085 175.377C48.4085 175.377 41.8588 179.919 42.7178 181.708C43.5767 183.498 48.4085 175.377 48.4085 175.377ZM60.3107 241.613C60.3107 241.613 65.8781 245.448 74.5593 246.415L60.3107 241.613ZM46.9251 250.847C46.9251 250.847 52.0949 257.801 54.453 257.988C56.8112 258.176 46.9251 250.847 46.9251 250.847ZM54.1627 278.117C53.9321 278.24 51.2319 284.393 48.4761 284.581C45.7202 284.768 54.1627 278.117 54.1627 278.117ZM78.1224 291.594C78.1224 291.594 83.2444 290.367 84.3817 294.304C84.3817 294.304 84.0397 293.073 78.1224 291.594ZM74.6746 314.126C74.6746 314.126 80.8783 312.771 82.1985 314.621C83.5188 316.47 74.6746 314.126 74.6746 314.126V314.126ZM57.1135 317.267C57.1135 317.326 50.7945 318.622 51.045 319.482C51.2955 320.343 57.7815 320.219 58.0122 318.864C58.0566 318.696 58.0683 318.52 58.0466 318.347C58.0249 318.173 57.9702 318.007 57.886 317.857C57.8017 317.707 57.6897 317.577 57.5568 317.476C57.424 317.374 57.2731 317.303 57.1135 317.267ZM72.6067 323.113C72.6067 323.113 82.9859 321.758 82.3337 324.097C81.6816 326.436 72.6067 323.113 72.6067 323.113ZM18.2571 186.089C18.3167 186.272 25.093 187.256 26.0116 189.596C26.0116 189.596 19.3507 186.272 18.3167 186.272L18.2571 186.089ZM27.7932 205.11C27.7932 205.11 22.1622 207.019 22.5599 209.912C22.9575 212.805 21.9912 208.561 27.7932 205.11ZM25.1686 219.759C25.1686 219.759 27.2206 216.742 29.1731 217.296C31.1257 217.85 25.1686 219.759 25.1686 219.759ZM57.3282 106.123C57.1297 106.328 56.9079 106.506 56.6681 106.652C55.0336 107.666 54.5962 109.208 53.8128 111.028C53.097 112.677 52.3056 114.437 50.8541 115.357C48.9851 116.563 46.5195 116.12 44.5749 117.176C43.7131 117.66 43.0054 118.408 42.5421 119.325C42.0789 120.242 41.8812 121.286 41.9741 122.324C42.1005 123.124 42.2867 123.912 42.5309 124.68C42.9696 126.342 43.1694 128.066 43.1234 129.793C43.1293 129.845 43.1293 129.898 43.1234 129.951C41.4575 129.06 39.9851 127.804 38.8017 126.264C37.6184 124.724 36.7507 122.934 36.2549 121.012C35.7591 119.089 35.6463 117.076 35.9239 115.103C36.2014 113.131 36.8631 111.243 37.866 109.562C38.8689 107.881 40.1905 106.446 41.745 105.348C43.2995 104.25 45.0522 103.515 46.8891 103.19C48.726 102.866 50.6061 102.959 52.4073 103.463C54.2085 103.968 55.8906 104.873 57.3441 106.119L57.3282 106.123Z" fill="black"/>
<path id="Vector_50" d="M56.9822 101.845C55.5228 98.5602 52.3533 96.4851 49.0924 95.454C46.603 94.6827 43.9028 94.4313 41.4333 95.2793C40.0255 95.7608 38.7411 96.5576 37.4248 97.2904C34.9632 98.6241 32.2551 99.6766 30.4059 101.867C29.9764 102.374 29.5787 103.03 29.706 103.703C29.8014 104.206 30.1673 104.589 30.4019 105.037C30.9308 106.034 30.7996 107.291 30.4377 108.377C30.0758 109.464 29.5469 110.478 29.2924 111.594C29.0379 112.711 29.1373 114.019 29.9088 114.816C30.2815 115.132 30.6691 115.428 31.07 115.702C31.4915 116.095 31.8619 116.546 32.1716 117.044L34.3627 120.253C35.3933 121.677 36.3111 123.19 37.1066 124.778C37.6554 125.941 38.077 127.185 38.8047 128.225C39.5324 129.265 40.6737 130.1 41.8827 129.985C41.9761 129.988 42.0689 129.967 42.1533 129.924C42.2377 129.881 42.3113 129.817 42.3678 129.738C42.4154 129.636 42.4373 129.523 42.4315 129.41C42.4809 127.683 42.2811 125.958 41.8389 124.296C41.5948 123.528 41.4086 122.74 41.2822 121.94C41.1897 120.902 41.3877 119.859 41.8509 118.942C42.3141 118.025 43.0215 117.277 43.8829 116.793C45.8315 115.74 48.2971 116.184 50.1661 114.978C51.6176 114.036 52.409 112.293 53.1248 110.644C53.9202 108.842 54.3457 107.282 55.9801 106.268C57.6145 105.254 57.7895 103.571 56.9822 101.845Z" fill="#585268"/>
<path id="Vector_51" opacity="0.1" d="M51.037 334.272C51.037 334.272 53.0572 337.042 52.5402 338.61C52.0233 340.178 51.037 334.272 51.037 334.272ZM78.5042 341.196C78.5042 341.196 78.9535 337.481 80.7629 337.446C82.5723 337.412 82.6598 337.246 84.0397 337.813C85.4197 338.38 86.7121 339.266 86.3025 339.402C85.8929 339.539 83.9165 337.272 81.9281 338.426C80.6649 339.163 79.5109 340.096 78.5042 341.196V341.196ZM44.9805 144.084L50.6434 139.823C50.6434 139.823 42.3281 134.557 41.3379 135.298C40.3477 136.04 39.6676 142.687 39.6676 142.687L44.9805 144.084Z" fill="black"/>
<path id="Vector_52" d="M44.9567 143.807L50.6434 139.444C50.6434 139.444 42.3281 134.182 41.3379 134.919C40.3477 135.656 39.6676 142.678 39.6676 142.678L44.9567 143.807Z" fill="#E1E7EF"/>
<path id="Vector_53" opacity="0.03" d="M44.9567 143.807L50.6434 139.444C50.6434 139.444 42.3281 134.182 41.3379 134.919C40.3477 135.656 39.6676 142.678 39.6676 142.678L44.9567 143.807Z" fill="black"/>
<path id="Vector_54" d="M42.2764 134.97L42.1054 134.876C41.8525 134.738 41.5676 134.681 41.2853 134.713C41.0029 134.745 40.7353 134.864 40.5147 135.055L23.4626 149.879C23.4626 149.879 19.7563 155.372 20.2812 164.852L30.3343 180.119C30.3343 180.119 31.4836 174.946 32.8635 175.931C32.8635 175.931 34.8161 202.4 32.8635 206.218C30.9109 210.035 30.048 224.314 30.048 224.314L36.6533 225.115C36.6533 225.115 37.3413 215.451 38.8922 212.004C40.4431 208.557 41.2782 196.711 41.2782 196.711C41.2782 196.711 42.674 179.501 42.4434 172.109C42.2127 164.716 40.2045 148.844 40.2045 148.844C40.2045 148.844 40.7652 139.538 42.2764 134.97V134.97Z" fill="#67647E"/>
<path id="Vector_55" opacity="0.1" d="M59.2609 141.383L52.1784 138.571C52.1784 138.571 61.2015 127.986 62.3229 133.858L59.2609 141.383Z" fill="black"/>
<path id="Vector_56" d="M59.2609 141.004L52.1784 138.196C52.1784 138.196 61.2015 127.607 62.3229 133.479L59.2609 141.004Z" fill="#E1E7EF"/>
<path id="Vector_57" opacity="0.03" d="M59.2609 141.004L52.1784 138.196C52.1784 138.196 61.2015 127.607 62.3229 133.479L59.2609 141.004Z" fill="black"/>
<path id="Vector_58" opacity="0.1" d="M59.0342 132.009C59.135 131.989 59.239 132.012 59.3245 132.073L59.0342 132.009Z" fill="black"/>
<path id="Vector_59" d="M59.7222 131.267L78.524 135.613C78.524 135.613 83.6938 136.845 87.4279 150.753C91.162 164.66 82.3138 181.709 82.3138 181.709L80.3613 179.932L81.3396 220.56C81.3396 220.56 72.6624 224.067 69.9065 220.986C67.1507 217.905 67.433 203.516 67.433 203.516C67.433 203.516 64.7925 176.915 63.1223 172.535C61.452 168.154 62.3269 136.645 62.3269 136.645C62.3269 136.645 60.772 131.024 59.7222 131.267V131.267Z" fill="#67647E"/>
<path id="Vector_60" opacity="0.1" d="M76.9135 157.157C76.647 157.421 76.3408 169.714 77.4901 179.071C78.1953 184.769 79.2838 190.406 80.747 195.936L79.041 158.439C79.041 158.439 77.7168 156.343 76.9135 157.157ZM74.6149 146.568C75.0762 146.875 77.0885 151.984 76.1659 154.08C75.2433 156.177 74.6149 146.568 74.6149 146.568ZM56.8709 101.845C55.9501 99.8976 54.5126 98.2847 52.7391 97.2095C54.0558 98.2156 55.12 99.5549 55.8369 101.108C56.6323 102.834 56.4096 104.564 54.8308 105.544C53.2521 106.524 52.759 108.1 51.9795 109.92C51.2637 111.569 50.4684 113.329 49.0169 114.249C47.1478 115.459 44.6862 115.016 42.7377 116.064C41.8759 116.549 41.1683 117.298 40.7052 118.216C40.242 119.133 40.0442 120.177 40.1369 121.216C40.2614 122.016 40.4476 122.804 40.6936 123.572C41.135 125.234 41.3335 126.958 41.2822 128.685C41.2891 128.798 41.2685 128.911 41.2225 129.013C41.166 129.093 41.0924 129.157 41.008 129.2C40.9236 129.243 40.8308 129.264 40.7374 129.26C40.2506 129.301 39.7624 129.204 39.3217 128.979C39.643 129.32 40.0263 129.586 40.4477 129.761C40.8691 129.936 41.3197 130.017 41.7713 129.998C41.8647 130.001 41.9575 129.98 42.042 129.937C42.1264 129.894 42.1999 129.83 42.2565 129.75C42.3022 129.648 42.324 129.536 42.3201 129.422C42.3676 127.695 42.1678 125.971 41.7276 124.309C41.4816 123.542 41.2953 122.753 41.1708 121.953C41.0784 120.915 41.2764 119.871 41.7396 118.955C42.2027 118.038 42.9101 117.29 43.7716 116.806C45.7202 115.753 48.1818 116.196 50.0508 114.99C51.5023 114.049 52.2977 112.306 53.0135 110.657C53.8088 108.855 54.2303 107.295 55.8648 106.281C57.4992 105.267 57.6742 103.571 56.8709 101.845V101.845Z" fill="black"/>
<path id="Vector_61" opacity="0.1" d="M385.037 326.969C394.041 326.969 401.341 325.895 401.341 324.57C401.341 323.245 394.041 322.171 385.037 322.171C376.032 322.171 368.732 323.245 368.732 324.57C368.732 325.895 376.032 326.969 385.037 326.969Z" fill="#00C7FA"/>
<path id="Vector_62" opacity="0.1" d="M257.221 348.785C263.621 348.785 268.809 348.022 268.809 347.08C268.809 346.139 263.621 345.376 257.221 345.376C250.821 345.376 245.633 346.139 245.633 347.08C245.633 348.022 250.821 348.785 257.221 348.785Z" fill="#00C7FA"/>
<path id="Vector_63" opacity="0.1" d="M153.533 336.151C159.933 336.151 165.121 335.388 165.121 334.447C165.121 333.505 159.933 332.742 153.533 332.742C147.133 332.742 141.945 333.505 141.945 334.447C141.945 335.388 147.133 336.151 153.533 336.151Z" fill="#00C7FA"/>
<path id="Vector_64" d="M159.915 330.569C160.645 329.932 161.177 329.071 161.438 328.102C161.637 327.126 161.247 325.95 160.373 325.592C159.394 325.192 158.348 325.921 157.557 326.653C156.766 327.386 155.855 328.226 154.821 328.068C155.354 327.549 155.753 326.892 155.978 326.16C156.204 325.427 156.249 324.645 156.11 323.888C156.063 323.575 155.939 323.281 155.752 323.036C155.207 322.414 154.221 322.682 153.572 323.172C151.505 324.727 150.928 327.74 150.916 330.446C150.709 329.47 150.884 328.452 150.876 327.463C150.868 326.474 150.618 325.333 149.826 324.813C149.34 324.524 148.792 324.377 148.236 324.387C147.309 324.348 146.271 324.451 145.639 325.179C144.844 326.082 145.054 327.599 145.738 328.588C146.422 329.576 147.468 330.211 148.431 330.897C149.2 331.389 149.857 332.061 150.351 332.862C150.411 332.974 150.459 333.092 150.494 333.215H156.324C157.626 332.508 158.833 331.619 159.915 330.569V330.569ZM391.65 321.579C392.384 320.943 392.921 320.082 393.189 319.112C393.388 318.136 392.998 316.981 392.123 316.602C391.145 316.201 390.099 316.93 389.308 317.663C388.516 318.396 387.606 319.235 386.568 319.077C387.102 318.56 387.502 317.903 387.728 317.17C387.954 316.437 387.998 315.654 387.856 314.897C387.813 314.583 387.689 314.288 387.498 314.045C386.957 313.423 385.971 313.692 385.323 314.182C383.255 315.737 382.678 318.749 382.666 321.455C382.456 320.479 382.635 319.461 382.627 318.472C382.619 317.484 382.364 316.342 381.577 315.822C381.091 315.534 380.542 315.387 379.986 315.396C379.056 315.358 378.022 315.46 377.385 316.189C376.59 317.092 376.801 318.609 377.489 319.597C378.177 320.586 379.219 321.221 380.181 321.907C380.951 322.399 381.607 323.07 382.102 323.871C382.16 323.984 382.208 324.102 382.245 324.225H388.071C389.369 323.518 390.572 322.628 391.65 321.579V321.579ZM260.367 341.499C261.097 340.86 261.629 340 261.894 339.032C262.089 338.051 261.699 336.901 260.828 336.522C259.85 336.121 258.804 336.846 258.013 337.583C257.221 338.32 256.311 339.151 255.273 338.997C255.806 338.48 256.206 337.822 256.432 337.09C256.657 336.357 256.702 335.574 256.561 334.817C256.516 334.504 256.392 334.209 256.203 333.965C255.658 333.343 254.676 333.612 254.024 334.102C251.956 335.661 251.38 338.669 251.368 341.379C251.161 340.404 251.336 339.385 251.332 338.397C251.328 337.408 251.069 336.266 250.282 335.746C249.795 335.459 249.247 335.312 248.691 335.32C247.761 335.286 246.727 335.384 246.091 336.113C245.295 337.02 245.506 338.537 246.194 339.522C246.882 340.506 247.924 341.141 248.882 341.831C249.662 342.329 250.326 343.011 250.823 343.825C250.88 343.937 250.928 344.054 250.966 344.174H256.788C258.088 343.46 259.292 342.56 260.367 341.499V341.499Z" fill="#00C7FA"/>
<path id="Vector_65" d="M377.226 147.071C372.009 146.96 367.404 142.998 364.795 138.191C364.112 137.043 363.682 135.743 363.539 134.391C363.557 134.082 363.605 133.777 363.682 133.479C363.849 133.028 363.982 132.563 364.079 132.09C364.101 131.9 364.101 131.708 364.079 131.519V131.493C364.207 130.462 363.642 129.469 362.934 128.758C362.226 128.046 361.363 127.53 360.636 126.844C358.393 124.735 357.713 121.352 357.669 118.131V117.96C357.693 116.584 357.796 115.199 357.784 113.819C357.802 113.035 357.77 112.25 357.689 111.471C357.474 109.519 356.782 107.534 355.35 106.29C351.616 103.047 345.337 106.422 341.476 103.354C340.533 102.608 339.774 101.496 338.636 101.223C337.773 101.002 336.879 101.3 336.04 101.598C333.192 102.604 330.019 103.929 328.905 106.895C328.269 108.599 328.448 110.512 327.864 112.225C327.466 113.371 326.762 114.356 326.237 115.446C325.804 116.264 325.593 117.195 325.629 118.135C325.585 118.621 325.649 119.112 325.816 119.567C326.012 120.11 326.329 120.594 326.738 120.977C326.588 121.315 326.402 121.633 326.181 121.923C325.454 122.877 324.336 123.559 323.581 124.48C322.181 126.218 322.233 128.583 322.924 130.628C323.616 132.673 324.857 134.535 325.708 136.525C326.078 137.377 326.376 138.357 325.991 139.218C325.724 139.815 325.167 140.266 324.734 140.782C324.099 141.545 323.701 142.501 323.597 143.518C315.074 145.601 315.07 152.934 315.07 152.934L310.473 165.351C310.473 165.351 309.738 167.439 308.883 170.195L303.435 169.151L307.197 175.943C306.477 178.709 305.972 181.274 306.139 182.561C306.139 182.561 304.449 191.083 307.455 192.57L314.096 195.77C314.383 195.956 314.692 196.099 315.015 196.196L315.285 196.324C315.382 196.374 315.488 196.401 315.595 196.401C315.703 196.401 315.809 196.374 315.906 196.324H316.013C316.148 196.338 316.284 196.318 316.411 196.264C316.56 196.18 316.677 196.043 316.741 195.876C316.742 195.863 316.742 195.851 316.741 195.838L318.729 195.22L320.415 197.35C321.175 197.921 321.918 198.42 322.646 198.867L320.053 226.649C320.053 226.649 319.632 263.574 318.363 271.981C317.89 275.096 317.886 277.218 318.065 278.662L318.017 278.756C318.331 281.129 319.147 281.598 319.147 281.598V281.564L319.194 281.598C319.578 280.52 320.034 279.474 320.558 278.466V279.071C320.534 282.207 320.443 286.592 320.161 289.442C319.644 294.291 321.477 310.355 321.477 310.355L322.109 324.97C322.212 327.45 321.675 329.912 320.558 332.086C319.059 335.005 317.107 339.108 316.979 340.928C316.973 341.027 316.973 341.127 316.979 341.226L313.655 345.372C313.655 345.372 312.382 347.472 315.245 348.32C316.784 348.781 319.445 348.32 321.576 347.779C322.508 347.55 323.341 346.989 323.937 346.188C324.534 345.388 324.859 344.394 324.861 343.369C325.41 341.356 326.333 339.482 327.573 337.86L328.11 341.222L331.689 342.172L332.146 332.955C332.332 332.437 332.416 331.883 332.393 331.328C333.097 324.774 330.735 325.362 330.735 325.362C330.795 325.424 330.835 325.505 330.85 325.592C330.81 325.52 330.771 325.443 330.735 325.367C329.283 322.299 329.995 317.271 329.995 317.271C329.995 317.271 331.876 302.664 332.536 298.808C333.001 296.085 332.811 287.163 332.655 282.165C332.655 281.956 332.655 281.739 332.636 281.564C338.175 281.487 344.963 281.283 349.735 280.788V281.394L348.853 315.907C348.793 318.106 348.377 320.278 347.624 322.324C347.624 322.363 347.592 322.401 347.58 322.439C346.524 325.323 345.922 328.374 345.798 331.468L345.401 342.436V342.739C344.689 343.033 343.568 343.88 343.536 346.339C343.488 349.94 349.409 348.738 349.409 348.738C355.331 348.738 355.374 342.133 355.374 342.133C355.374 342.133 355.565 336.079 355.844 332.026C356.122 327.974 354.953 328.869 354.953 328.869L354.865 340.374V340.463V330.36L354.957 328.895V328.852L354.977 328.541L355.712 316.653C355.712 316.653 361.164 296.839 362.011 293.039C362.612 290.342 362.361 282.203 362.163 277.699C362.163 277.49 362.163 277.294 362.139 277.103C363.825 276.941 365.32 276.924 365.921 276.924H366.195C366.195 276.924 365.913 245.103 365.209 233.096C364.505 221.088 363.375 210.129 360.552 206.827C358.85 204.833 356.476 198.671 354.861 194.108C358.229 195.67 361.723 196.897 365.3 197.772C374.232 199.775 373.011 191.466 373.011 191.466L372.104 175.756H372.164C372.131 171.64 371.802 167.533 371.178 163.472C370.709 160.357 369.985 157.136 368.879 154.524C369.85 154.127 370.804 153.671 371.742 153.245C374.168 152.099 376.912 150.471 377.254 147.668H377.135C377.18 147.472 377.21 147.272 377.226 147.071V147.071ZM321.863 169.799C321.887 171.422 321.827 174.235 321.739 177.349L318.904 173.293L321.747 168.35L321.863 169.799ZM361.057 184.163L356.333 182.535C357.171 181.135 358.15 179.838 359.252 178.666L359.649 178.24L359.502 178.274L359.733 178.053L359.868 178.018L359.649 178.24L359.908 178.185C360.193 179.456 360.744 180.642 361.518 181.653C363.204 183.664 361.041 184.163 361.041 184.163H361.057Z" fill="url(#paint4_linear_0_3)"/>
<path id="Vector_66" d="M332.341 330.203L331.785 341.426L328.261 340.484L327.518 335.814L332.341 330.203Z" fill="#A27772"/>
<path id="Vector_67" opacity="0.1" d="M332.341 330.203L331.785 341.426L328.261 340.484L327.518 335.814L332.341 330.203Z" fill="black"/>
<path id="Vector_68" d="M345.274 342.918L350.65 344.111L354.627 340.335V329.704L354.714 328.251V328.209L354.734 327.902L355.458 316.099C355.458 316.099 360.834 296.426 361.67 292.664C362.262 289.984 362.016 281.901 361.821 277.435C361.741 275.603 361.67 274.38 361.67 274.38L349.803 271.299L349.553 281.1L348.686 315.358C348.626 317.54 348.215 319.696 347.469 321.728L347.429 321.843C346.396 324.713 345.814 327.747 345.707 330.821L345.309 341.707V342.01L345.274 342.918Z" fill="#CC818C"/>
<path id="Vector_69" opacity="0.1" d="M354.73 327.906V328.209L354.75 327.902L354.73 327.906ZM345.274 342.918L350.65 344.111L354.627 340.335V339.432C354.615 339.633 354.556 339.827 354.456 339.998C354.356 340.168 354.218 340.309 354.054 340.408L353.998 340.442C352.147 341.493 350.047 341.937 347.962 341.72L345.862 341.528C345.673 341.551 345.487 341.6 345.309 341.673V341.976L345.274 342.918Z" fill="black"/>
<path id="Vector_70" d="M354.01 340.74L354.066 340.706C354.241 340.601 354.387 340.448 354.489 340.262C354.59 340.076 354.643 339.865 354.643 339.649L354.73 328.204C354.73 328.204 355.891 327.322 355.613 331.345C355.335 335.367 355.148 341.379 355.148 341.379C355.148 341.379 355.104 347.937 349.262 347.937C349.262 347.937 343.42 349.126 343.464 345.551C343.508 341.976 345.878 341.827 345.878 341.827L347.974 342.023C350.06 342.236 352.158 341.79 354.01 340.74V340.74Z" fill="#B07473"/>
<path id="Vector_71" d="M317.274 340.485C317.413 343.067 324.503 341.575 324.503 341.575L329.275 331.643C329.275 331.643 333.252 328.362 331.264 325.482C331.155 325.326 331.057 325.162 330.969 324.992V324.966C330.926 324.889 330.89 324.813 330.85 324.732C329.418 321.689 330.122 316.7 330.122 316.7C330.122 316.7 331.975 302.213 332.628 298.378C333.085 295.672 332.898 286.814 332.743 281.854C332.683 279.796 332.628 278.407 332.628 278.407L320.849 275.032V278.794C320.825 281.905 320.737 286.26 320.451 289.089C319.942 293.908 321.751 309.853 321.751 309.853L322.376 324.365C322.465 326.822 321.924 329.258 320.813 331.409C319.333 334.306 317.409 338.384 317.274 340.191C317.266 340.288 317.266 340.387 317.274 340.485V340.485Z" fill="#CC818C"/>
<path id="Vector_72" opacity="0.1" d="M317.274 340.485C317.413 343.067 324.503 341.575 324.503 341.575L329.275 331.643C329.275 331.643 333.252 328.362 331.264 325.482C331.156 325.326 331.057 325.162 330.969 324.992C330.906 326.496 329.379 330.25 329.379 330.25C329.379 330.25 325.438 338.699 324.209 340.634C322.98 342.568 317.508 340.276 317.305 340.208C317.288 340.299 317.277 340.391 317.274 340.485V340.485Z" fill="black"/>
<path id="Vector_73" d="M330.842 324.723C330.842 324.723 333.172 324.144 332.48 330.65C332.506 331.39 332.348 332.124 332.023 332.777C331.699 333.43 331.218 333.98 330.631 334.37C328.965 335.495 326.388 337.911 325.088 342.611C325.089 343.626 324.77 344.611 324.182 345.407C323.594 346.203 322.773 346.763 321.851 346.995C319.747 347.519 317.122 347.984 315.603 347.528C312.776 346.676 314.013 344.601 314.013 344.601L317.258 340.476C317.258 340.476 322.913 342.862 324.165 340.923C325.418 338.985 329.335 330.539 329.335 330.539C329.335 330.539 331.55 325.269 330.842 324.723V324.723Z" fill="#B07473"/>
<path id="Vector_74" opacity="0.1" d="M349.819 272.48L349.568 282.28C352.75 281.952 354.993 281.492 355.382 280.848C356.213 279.463 359.252 278.875 361.837 278.637C361.757 276.804 361.685 275.582 361.685 275.582L349.819 272.48ZM320.837 279.97C321.142 279.31 321.587 278.735 322.137 278.292C323.39 277.546 323.255 283.06 323.255 283.06C323.255 283.06 327.41 283.102 332.735 283.03C332.675 280.967 332.62 279.583 332.62 279.583L320.841 276.208C320.841 276.208 320.857 277.78 320.837 279.97Z" fill="black"/>
<path id="Vector_75" d="M319.497 281.283C319.497 281.283 320.888 277.248 322.137 276.506C323.386 275.765 323.255 281.274 323.255 281.274C323.255 281.274 353.851 281.573 355.382 279.037C356.913 276.502 365.813 276.655 365.813 276.655C365.813 276.655 365.535 245.06 364.839 233.138C364.143 221.216 363.03 210.338 360.25 207.061C358.448 204.931 355.875 198.075 354.309 193.499C353.446 190.997 352.877 189.178 352.877 189.178L323.672 190.968L323.433 193.499L320.332 226.734C320.332 226.734 319.934 263.378 318.661 271.738C317.389 280.098 319.497 281.283 319.497 281.283V281.283Z" fill="#444053"/>
<g id="Group_2" opacity="0.1">
<path id="Vector_76" opacity="0.1" d="M353.024 279.059C354.551 276.528 363.455 276.677 363.455 276.677C363.455 276.677 363.177 245.082 362.481 233.16C361.785 221.237 360.671 210.359 357.892 207.082C356.09 204.952 353.517 198.096 351.95 193.52C351.227 191.419 350.71 189.8 350.563 189.336L352.829 189.199C352.829 189.199 353.398 191.019 354.261 193.52C355.852 198.096 358.401 204.96 360.202 207.082C362.986 210.359 364.095 221.237 364.791 233.16C365.487 245.082 365.75 276.655 365.75 276.655C365.75 276.655 356.85 276.502 355.323 279.059C354.014 281.223 331.498 281.321 324.961 281.304C333.343 281.261 351.831 280.993 353.024 279.059ZM319.767 276.502C320.332 276.165 320.614 277.098 320.753 278.206C320.249 279.189 319.809 280.209 319.437 281.257C319.437 281.257 318.642 280.793 318.323 278.436C318.765 277.597 319.278 276.796 319.767 276.502V276.502Z" fill="black"/>
</g>
<path id="Vector_77" d="M328.52 112.736C326.5 115.694 328.544 119.891 326.376 122.762C325.66 123.713 324.559 124.39 323.811 125.319C322.427 127.049 322.483 129.392 323.163 131.425C323.843 133.457 325.072 135.302 325.915 137.28C326.281 138.132 326.575 139.099 326.197 139.951C325.935 140.543 325.402 140.991 324.957 141.506C323.565 143.172 323.525 145.49 324.273 147.45C325.02 149.41 326.456 151.111 327.852 152.764C328.408 153.42 329.112 154.14 330.039 154.123C330.527 154.081 330.999 153.914 331.415 153.637C334.713 151.777 337.216 148.625 338.402 144.838C339.404 141.276 339.193 137.448 337.805 134.037C336.612 131.024 334.672 128.136 334.656 124.948C334.656 122.422 335.869 120.01 336.083 117.492C336.346 114.437 334.656 109.579 331.212 108.245C331.439 110.218 329.562 111.237 328.52 112.736V112.736Z" fill="#585268"/>
<path id="Vector_78" opacity="0.1" d="M328.52 112.736C326.5 115.694 328.544 119.891 326.376 122.762C325.66 123.713 324.559 124.39 323.811 125.319C322.427 127.049 322.483 129.392 323.163 131.425C323.843 133.457 325.072 135.302 325.915 137.28C326.281 138.132 326.575 139.099 326.197 139.951C325.935 140.543 325.402 140.991 324.957 141.506C323.565 143.172 323.525 145.49 324.273 147.45C325.02 149.41 326.456 151.111 327.852 152.764C328.408 153.42 329.112 154.14 330.039 154.123C330.527 154.081 330.999 153.914 331.415 153.637C334.713 151.777 337.216 148.625 338.402 144.838C339.404 141.276 339.193 137.448 337.805 134.037C336.612 131.024 334.672 128.136 334.656 124.948C334.656 122.422 335.869 120.01 336.083 117.492C336.346 114.437 334.656 109.579 331.212 108.245C331.439 110.218 329.562 111.237 328.52 112.736V112.736ZM350.944 220.164C346.896 220.394 343.086 222.256 339.543 224.365C336 226.474 332.572 228.882 328.758 230.364L350.944 220.164ZM348.427 230.381C344.422 230.793 340.689 232.737 337.913 235.857C336.93 236.973 336.083 238.226 335.057 239.295C333.485 240.933 331.543 242.107 329.422 242.704L348.427 230.381ZM349.258 238.153C346.03 239.113 343.107 241.001 340.808 243.612C340.187 244.328 339.615 245.099 339.002 245.81C335.65 249.645 330.918 251.712 326.348 253.646" fill="black"/>
<path id="Vector_79" d="M348.912 130.313C349.003 133.779 349.282 137.236 349.747 140.667C350.121 143.113 350.654 145.29 351.418 146.257C353.641 149.091 340.569 152.892 340.569 152.892L332.85 146.5C332.85 146.5 338.97 140.462 336.119 134.57C333.268 128.677 348.912 130.313 348.912 130.313V130.313Z" fill="#CC818C"/>
<path id="Vector_80" opacity="0.1" d="M323.434 193.499H354.309C353.446 190.997 352.877 189.178 352.877 189.178L323.672 190.968L323.434 193.499Z" fill="black"/>
<path id="Vector_81" d="M321.445 192.902H354.452C353.525 189.348 354.452 186.055 355.776 183.528C356.701 181.753 357.866 180.133 359.232 178.722L359.458 178.504L370.991 175.764L371.611 175.62C371.611 175.62 371.703 153.169 364.286 150.088C356.87 147.007 352.416 142.844 352.416 142.844L342.219 146.219L334.707 142.15C332.298 144.932 325.899 143.854 325.899 143.854C315.42 145.132 315.42 153.59 315.42 153.59C315.42 153.59 321.541 168.892 322.006 168.892C322.471 168.892 321.445 192.902 321.445 192.902V192.902Z" fill="#67647E"/>
<path id="Vector_82" opacity="0.1" d="M332.842 178.628C332.842 178.628 326.11 177.03 323.819 174.235L332.842 178.628ZM366.784 170.251L358.989 177.107C359.046 177.649 359.132 178.186 359.248 178.717L359.474 178.5L371.007 175.76L366.784 170.251ZM345.643 190.52C345.643 190.52 347.353 191.551 349.97 192.902H354.456C353.529 189.348 354.456 186.055 355.78 183.528L347.854 180.78C350.559 183.464 345.643 190.52 345.643 190.52V190.52Z" fill="black"/>
<path id="Vector_83" d="M320.053 150.88L315.416 153.561L310.871 165.879C310.871 165.879 306.143 179.391 306.604 182.97C306.604 182.97 304.938 191.411 307.904 192.902L315.643 196.652C315.779 196.718 315.932 196.737 316.079 196.706C316.225 196.674 316.359 196.594 316.462 196.477C316.564 196.36 316.629 196.212 316.649 196.053C316.668 195.894 316.64 195.732 316.57 195.591C315.468 193.354 314.259 189.86 316.172 187.921L313.945 182.957L322.006 168.862L324.69 164.013L320.053 150.88Z" fill="#67647E"/>
<path id="Vector_84" opacity="0.1" d="M330.357 175.807C330.755 177.563 332.115 180.26 336.6 181.278L341.539 185.599L346.777 188.155L348.908 189.191L349.815 182.186L347.759 180.98L345.373 179.578C345.373 179.578 339.969 169.079 331.407 173.515C331.014 173.711 330.695 174.045 330.504 174.462C330.313 174.879 330.261 175.354 330.357 175.807V175.807Z" fill="black"/>
<path id="Vector_85" d="M330.639 175.211C331.037 176.966 332.397 179.663 336.883 180.682L341.822 185.006L347.059 187.563L349.191 188.598L350.097 181.593L348.041 180.392L345.655 178.986C345.655 178.986 340.251 168.491 331.689 172.922C331.297 173.118 330.979 173.452 330.788 173.868C330.597 174.284 330.544 174.758 330.639 175.211V175.211Z" fill="#CC818C"/>
<path id="Vector_86" opacity="0.1" d="M340.287 139.406C346.893 139.406 352.249 133.667 352.249 126.589C352.249 119.51 346.893 113.772 340.287 113.772C333.68 113.772 328.325 119.51 328.325 126.589C328.325 133.667 333.68 139.406 340.287 139.406Z" fill="black"/>
<path id="Vector_87" d="M340.287 139.107C346.893 139.107 352.249 133.369 352.249 126.29C352.249 119.212 346.893 113.474 340.287 113.474C333.68 113.474 328.325 119.212 328.325 126.29C328.325 133.369 333.68 139.107 340.287 139.107Z" fill="#CC818C"/>
<path id="Vector_88" opacity="0.1" d="M347.695 153.671L344.116 146.181C344.116 146.181 349.381 143.905 349.763 141.263C350.145 138.622 354.806 144.357 353.796 146.257C352.786 148.158 347.695 153.671 347.695 153.671Z" fill="black"/>
<path id="Vector_89" d="M347.695 153.075L344.116 145.584C344.116 145.584 349.381 143.309 349.763 140.667C350.145 138.025 354.806 143.765 353.796 145.661C352.786 147.557 347.695 153.075 347.695 153.075Z" fill="#67647E"/>
<path id="Vector_90" d="M318.264 172.42L338.147 201.049C338.147 201.049 330.822 205.31 320.713 197.67L316.339 192.109L303.912 169.654L318.264 172.42Z" fill="#F6F8FB"/>
<path id="Vector_91" d="M314.351 187.985L316.16 187.934C316.16 187.934 327.215 176.429 329.927 182.25C332.64 188.07 323.044 193.499 323.044 193.499L320.125 195.203L316.299 196.396L313.866 192.894L314.351 187.985Z" fill="#CC818C"/>
<path id="Vector_92" opacity="0.1" d="M317.019 194.197C317.186 194.858 317.345 195.586 317.067 196.2C317.003 196.366 316.886 196.502 316.737 196.584C316.611 196.64 316.474 196.66 316.339 196.643C315.381 196.555 314.49 196.082 313.846 195.318C313.209 194.56 312.666 193.718 312.227 192.813C311.734 191.896 311.221 190.874 311.4 189.83C311.595 188.688 312.545 187.895 313.452 187.273C315.285 185.974 315.329 187.486 315.746 189.157L317.019 194.197Z" fill="black"/>
<path id="Vector_93" d="M316.741 194.197C316.908 194.858 317.067 195.586 316.788 196.2C316.724 196.366 316.607 196.502 316.458 196.584C316.333 196.64 316.196 196.66 316.061 196.643C315.103 196.555 314.212 196.082 313.567 195.318C312.931 194.56 312.387 193.718 311.949 192.813C311.456 191.896 310.943 190.874 311.122 189.83C311.316 188.688 312.267 187.895 313.174 187.273C315.007 185.974 315.051 187.486 315.468 189.157L316.741 194.197Z" fill="#67647E"/>
<path id="Vector_94" opacity="0.1" d="M322.002 168.862L322.928 167.187L322.117 170.298L322.002 168.862V168.862ZM347.059 187.546L349.191 188.581L350.097 181.576L348.041 180.375C349.445 182.105 348.216 185.317 347.059 187.546ZM355.613 179.416C355.613 179.416 348.729 179.863 345.81 177.852Z" fill="black"/>
<g id="Group_3" opacity="0.1">
<path id="Vector_95" opacity="0.1" d="M354.758 184.12C355.686 182.346 356.851 180.726 358.218 179.314C358.545 179.093 358.885 178.894 359.236 178.717L369.973 176.357L370.593 176.212C370.593 176.212 370.689 153.761 363.268 150.68C359.11 148.981 355.211 146.627 351.7 143.697L352.515 143.428C352.515 143.428 356.965 147.6 364.382 150.672C371.798 153.744 371.715 176.212 371.715 176.212H370.601L359.61 178.466L358.989 179.101C357.611 180.578 356.429 182.251 355.478 184.073C354.027 186.964 353.697 190.35 354.559 193.499H353.422C352.507 189.945 353.45 186.651 354.758 184.12ZM325.454 144.498C325.633 144.472 325.804 144.442 325.987 144.421C326.739 144.535 327.497 144.602 328.257 144.621C327.321 144.649 326.384 144.607 325.454 144.498V144.498ZM341.193 146.803L334.401 143.134C334.542 143.015 334.675 142.885 334.799 142.746L341.885 146.581L341.193 146.803Z" fill="black"/>
</g>
<path id="Vector_96" d="M367.062 169.654L371.607 175.62L372.534 191.811C372.534 191.811 373.727 200.056 364.93 198.071C356.134 196.085 345.922 189.924 345.922 189.924C345.922 189.924 350.837 182.867 348.149 180.187L360.759 184.559C360.759 184.559 362.89 184.061 361.22 182.075C359.55 180.089 359.256 176.51 359.256 176.51L367.062 169.654Z" fill="#67647E"/>
<path id="Vector_97" opacity="0.1" d="M369.102 186.745L371.607 189.821C370.963 189.61 370.387 189.21 369.945 188.667C369.502 188.123 369.21 187.457 369.102 186.745V186.745ZM364.839 186.246L368.732 191.611L366.788 192.109L364.839 186.246ZM326.006 120.406C325.577 119.285 325.903 117.99 326.404 116.912C326.905 115.834 327.625 114.854 327.995 113.712C328.571 112.008 328.392 110.099 329.021 108.42C330.122 105.48 333.252 104.159 336.06 103.166C336.887 102.872 337.77 102.574 338.621 102.791C339.742 103.081 340.494 104.185 341.404 104.922C345.214 107.964 351.406 104.615 355.088 107.836C356.5 109.068 357.184 111.045 357.395 112.979C357.605 114.914 357.395 116.878 357.375 118.83C357.315 122.238 357.908 125.979 360.298 128.242C361.017 128.924 361.864 129.439 362.564 130.142C363.264 130.845 363.817 131.847 363.694 132.857C363.595 133.326 363.462 133.786 363.296 134.233C362.819 136.014 363.527 137.902 364.39 139.508C366.966 144.28 371.504 148.213 376.654 148.324C376.308 151.106 373.612 152.721 371.218 153.863C368.167 155.316 364.962 156.744 361.63 156.56C358.297 156.377 354.822 154.093 354.229 150.595C354.026 149.389 354.054 147.911 353.076 147.276C352.487 146.892 351.724 146.99 351.087 146.7C350.169 146.274 349.712 145.192 349.409 144.169C348.788 142.067 348.455 139.88 348.419 137.676C348.379 135.064 348.705 132.213 347.322 130.061C346.041 128.072 343.766 127.079 342.291 125.229C340.931 123.525 339.448 121.488 337.217 121.165C334.218 120.7 327.832 125.195 326.006 120.406V120.406Z" fill="black"/>
<path id="Vector_98" d="M326.006 119.81C325.577 118.689 325.903 117.394 326.404 116.316C326.905 115.238 327.625 114.258 327.995 113.116C328.571 111.411 328.392 109.502 329.021 107.824C330.122 104.883 333.252 103.563 336.06 102.57C336.887 102.276 337.77 101.977 338.621 102.195C339.742 102.485 340.494 103.588 341.404 104.325C345.214 107.372 351.406 104.018 355.088 107.24C356.5 108.475 357.184 110.448 357.395 112.383C357.605 114.317 357.395 116.282 357.375 118.233C357.315 121.642 357.908 125.383 360.298 127.645C361.017 128.327 361.864 128.843 362.564 129.546C363.264 130.249 363.817 131.25 363.694 132.26C363.594 132.73 363.461 133.192 363.296 133.641C362.819 135.417 363.527 137.309 364.39 138.911C366.966 143.684 371.504 147.617 376.654 147.727C376.308 150.51 373.612 152.125 371.218 153.267C368.167 154.724 364.962 156.147 361.63 155.964C358.297 155.781 354.822 153.497 354.229 149.977C354.026 148.771 354.054 147.293 353.076 146.658C352.487 146.274 351.724 146.372 351.087 146.083C350.169 145.657 349.712 144.574 349.409 143.552C348.788 141.45 348.455 139.262 348.419 137.058C348.379 134.446 348.705 131.595 347.322 129.444C346.041 127.454 343.766 126.461 342.291 124.612C340.931 122.907 339.448 120.871 337.217 120.547C334.218 120.125 327.832 124.599 326.006 119.81V119.81Z" fill="#585268"/>
<path id="Vector_99" opacity="0.1" d="M334.485 152.743L341.341 146.777C341.341 146.777 336.648 144.05 336.087 141.724C335.527 139.397 331.773 142.827 332.154 144.915C332.536 147.003 334.485 152.743 334.485 152.743Z" fill="black"/>
<path id="Vector_100" d="M334.763 151.848L341.619 145.882C341.619 145.882 336.926 143.155 336.366 140.829C335.805 138.502 332.051 141.932 332.433 144.02C332.815 146.108 334.763 151.848 334.763 151.848Z" fill="#67647E"/>
<path id="Vector_101" opacity="0.1" d="M341.885 151.46C342.186 151.46 342.43 151.199 342.43 150.876C342.43 150.554 342.186 150.292 341.885 150.292C341.584 150.292 341.341 150.554 341.341 150.876C341.341 151.199 341.584 151.46 341.885 151.46Z" fill="black"/>
<path id="Vector_102" opacity="0.1" d="M341.885 154.707C342.186 154.707 342.43 154.445 342.43 154.123C342.43 153.801 342.186 153.539 341.885 153.539C341.584 153.539 341.341 153.801 341.341 154.123C341.341 154.445 341.584 154.707 341.885 154.707Z" fill="black"/>
<path id="Vector_103" opacity="0.1" d="M341.885 157.949C342.186 157.949 342.43 157.688 342.43 157.366C342.43 157.043 342.186 156.782 341.885 156.782C341.584 156.782 341.341 157.043 341.341 157.366C341.341 157.688 341.584 157.949 341.885 157.949Z" fill="black"/>
<g id="Group_4" opacity="0.1">
<path id="Vector_104" opacity="0.1" d="M328.766 111.531C329.307 109.933 329.192 108.143 329.697 106.537C329.465 106.893 329.272 107.276 329.12 107.679C328.492 109.357 328.667 111.275 328.094 112.975C328.094 113.005 328.066 113.039 328.054 113.073C328.335 112.583 328.573 112.067 328.766 111.531V111.531ZM372.029 151.682C368.979 153.139 365.773 154.562 362.437 154.379C359.101 154.195 355.633 151.912 355.04 148.392C354.838 147.186 354.865 145.708 353.887 145.073C353.299 144.689 352.535 144.787 351.899 144.498C350.976 144.071 350.523 142.989 350.221 141.967C349.599 139.862 349.265 137.672 349.23 135.464C349.191 132.852 349.513 130.002 348.133 127.85C346.852 125.86 344.578 124.867 343.102 123.018C341.738 121.314 340.259 119.277 338.024 118.953C334.962 118.527 328.571 123.001 326.75 118.212C326.458 117.306 326.499 116.316 326.865 115.442C326.734 115.681 326.607 115.919 326.492 116.162C325.975 117.24 325.649 118.536 326.094 119.656C327.919 124.445 334.306 119.95 337.372 120.398C339.603 120.721 341.086 122.771 342.45 124.463C343.925 126.295 346.196 127.305 347.477 129.299C348.861 131.429 348.538 134.301 348.578 136.909C348.611 139.115 348.943 141.304 349.564 143.407C349.867 144.425 350.324 145.537 351.243 145.938C351.879 146.223 352.642 146.13 353.231 146.513C354.205 147.144 354.181 148.643 354.38 149.828C354.973 153.348 358.448 155.636 361.781 155.819C365.113 156.002 368.323 154.575 371.369 153.117C373.564 152.074 376.01 150.621 376.666 148.243C375.6 149.807 373.739 150.868 372.029 151.682Z" fill="black"/>
</g>
</g>
<defs>
<linearGradient id="paint0_linear_0_3" x1="140.151" y1="135.136" x2="140.151" y2="57.8254" gradientUnits="userSpaceOnUse">
<stop stop-color="#808080" stop-opacity="0.25"/>
<stop offset="0.54" stop-color="#808080" stop-opacity="0.12"/>
<stop offset="1" stop-color="#808080" stop-opacity="0.1"/>
</linearGradient>
<linearGradient id="paint1_linear_0_3" x1="69375.5" y1="40267.6" x2="69375.5" y2="27856.2" gradientUnits="userSpaceOnUse">
<stop stop-color="#808080" stop-opacity="0.25"/>
<stop offset="0.54" stop-color="#808080" stop-opacity="0.12"/>
<stop offset="1" stop-color="#808080" stop-opacity="0.1"/>
</linearGradient>
<linearGradient id="paint2_linear_0_3" x1="83.4182" y1="146.616" x2="83.4182" y2="146.603" gradientUnits="userSpaceOnUse">
<stop stop-color="#808080" stop-opacity="0.25"/>
<stop offset="0.54" stop-color="#808080" stop-opacity="0.12"/>
<stop offset="1" stop-color="#808080" stop-opacity="0.1"/>
</linearGradient>
<linearGradient id="paint3_linear_0_3" x1="18763.4" y1="219642" x2="18763.4" y2="64449.6" gradientUnits="userSpaceOnUse">
<stop stop-color="#808080" stop-opacity="0.25"/>
<stop offset="0.54" stop-color="#808080" stop-opacity="0.12"/>
<stop offset="1" stop-color="#808080" stop-opacity="0.1"/>
</linearGradient>
<linearGradient id="paint4_linear_0_3" x1="69992.8" y1="210703" x2="69992.8" y2="66611.4" gradientUnits="userSpaceOnUse">
<stop stop-color="#808080" stop-opacity="0.25"/>
<stop offset="0.54" stop-color="#808080" stop-opacity="0.12"/>
<stop offset="1" stop-color="#808080" stop-opacity="0.1"/>
</linearGradient>
<clipPath id="clip0_0_3">
<rect width="407" height="357" fill="white"/>
</clipPath>
</defs>
</svg>
